<svg xmlns="http://www.w3.org/2000/svg" viewBox="0 0 512 512" role="img" aria-label="Meu Remédio">
  <rect width="512" height="512" rx="112" fill="#f6fbf8"/>
  <circle cx="256" cy="256" r="176" fill="#dff3e7"/>
  <path d="M190 254c-34 34-34 89 0 123s89 34 123 0l116-116c34-34 34-89 0-123s-89-34-123 0L190 254Z" fill="#27715d"/>
  <path d="m248 196 123 123 58-58c34-34 34-89 0-123s-89-34-123 0l-58 58Z" fill="#88c9b1"/>
  <path d="m248 196 123 123" stroke="#f6fbf8" stroke-width="28" stroke-linecap="round"/>
  <path d="m185 271 45 45 88-98" fill="none" stroke="#ffffff" stroke-width="28" stroke-linecap="round" stroke-linejoin="round"/>
</svg>
